%TF.GenerationSoftware,KiCad,Pcbnew,(5.1.6-0-10_14)*%
%TF.CreationDate,2020-09-04T13:20:55+09:00*%
%TF.ProjectId,Right,52696768-742e-46b6-9963-61645f706362,rev?*%
%TF.SameCoordinates,Original*%
%TF.FileFunction,Soldermask,Top*%
%TF.FilePolarity,Negative*%
%FSLAX46Y46*%
G04 Gerber Fmt 4.6, Leading zero omitted, Abs format (unit mm)*
G04 Created by KiCad (PCBNEW (5.1.6-0-10_14)) date 2020-09-04 13:20:55*
%MOMM*%
%LPD*%
G01*
G04 APERTURE LIST*
%ADD10C,1.624000*%
%ADD11C,1.750000*%
%ADD12C,1.800000*%
%ADD13C,1.900000*%
%ADD14R,1.900000X1.900000*%
%ADD15C,1.600000*%
%ADD16C,2.300000*%
%ADD17O,1.700000X1.700000*%
%ADD18R,1.700000X1.700000*%
%ADD19C,3.100000*%
%ADD20C,4.087800*%
%ADD21C,1.801800*%
%ADD22C,3.148000*%
%ADD23O,1.500000X1.500000*%
%ADD24C,1.500000*%
%ADD25O,2.300000X2.300000*%
%ADD26R,2.300000X2.300000*%
%ADD27C,0.100000*%
%ADD28C,1.700000*%
G04 APERTURE END LIST*
D10*
%TO.C,BPM1*%
X226365000Y-7620000D03*
X226365000Y7620000D03*
X223825000Y-7620400D03*
X221285000Y-7620400D03*
X218745000Y-7620400D03*
X216205000Y-7620400D03*
X213665000Y-7620400D03*
X211125000Y-7620400D03*
X208585000Y-7620400D03*
X206045000Y-7620400D03*
X203505000Y-7620400D03*
X200965000Y-7620400D03*
X198425000Y-7620400D03*
X195885000Y-7620400D03*
X195885000Y7619600D03*
X198425000Y7619600D03*
X200965000Y7619600D03*
X203505000Y7619600D03*
X206045000Y7619600D03*
X208585000Y7619600D03*
X211125000Y7619600D03*
X213665000Y7619600D03*
X216205000Y7619600D03*
X218745000Y7619600D03*
X221285000Y7619600D03*
X223825000Y7619600D03*
%TD*%
%TO.C,BPM2*%
X247385000Y7620000D03*
X247385000Y-7620000D03*
X249925000Y7620400D03*
X252465000Y7620400D03*
X255005000Y7620400D03*
X257545000Y7620400D03*
X260085000Y7620400D03*
X262625000Y7620400D03*
X265165000Y7620400D03*
X267705000Y7620400D03*
X270245000Y7620400D03*
X272785000Y7620400D03*
X275325000Y7620400D03*
X277865000Y7620400D03*
X277865000Y-7619600D03*
X275325000Y-7619600D03*
X272785000Y-7619600D03*
X270245000Y-7619600D03*
X267705000Y-7619600D03*
X265165000Y-7619600D03*
X262625000Y-7619600D03*
X260085000Y-7619600D03*
X257545000Y-7619600D03*
X255005000Y-7619600D03*
X252465000Y-7619600D03*
X249925000Y-7619600D03*
%TD*%
D11*
%TO.C,U1*%
X152100000Y-2290000D03*
X172100000Y-2290000D03*
%TD*%
%TO.C,U2*%
X113570000Y-2290000D03*
X133570000Y-2290000D03*
%TD*%
%TO.C,U4*%
X321660000Y-2290000D03*
X301660000Y-2290000D03*
%TD*%
%TO.C,U3*%
X359760000Y-2290000D03*
X339760000Y-2290000D03*
%TD*%
D12*
%TO.C,SW1005*%
X387085000Y-15875000D03*
X387085000Y-22375000D03*
X382585000Y-15875000D03*
X382585000Y-22375000D03*
%TD*%
%TO.C,SW1004*%
X387085000Y-6985000D03*
X387085000Y-13485000D03*
X382585000Y-6985000D03*
X382585000Y-13485000D03*
%TD*%
%TO.C,SW1003*%
X387085000Y1905000D03*
X387085000Y-4595000D03*
X382585000Y1905000D03*
X382585000Y-4595000D03*
%TD*%
%TO.C,SW1002*%
X110795000Y1905000D03*
X110795000Y-4595000D03*
X106295000Y1905000D03*
X106295000Y-4595000D03*
%TD*%
%TO.C,SW1001*%
X110795000Y-6985000D03*
X110795000Y-13485000D03*
X106295000Y-6985000D03*
X106295000Y-13485000D03*
%TD*%
%TO.C,SW1000*%
X110795000Y-15875000D03*
X110795000Y-22375000D03*
X106295000Y-15875000D03*
X106295000Y-22375000D03*
%TD*%
D13*
%TO.C,LED2*%
X390895000Y-635000D03*
D14*
X390895000Y1905000D03*
%TD*%
D13*
%TO.C,LED1*%
X102540000Y-635000D03*
D14*
X102540000Y1905000D03*
%TD*%
D15*
%TO.C,SWITCH1*%
X382005000Y6350000D03*
X384545000Y6350000D03*
X387085000Y6350000D03*
X389625000Y6350000D03*
X392165000Y6350000D03*
%TD*%
D16*
%TO.C,REF\u002A\u002A*%
X346445000Y-159105000D03*
%TD*%
%TO.C,REF\u002A\u002A*%
X326425000Y-154105000D03*
%TD*%
%TO.C,REF\u002A\u002A*%
X247162500Y-159105000D03*
%TD*%
%TO.C,REF\u002A\u002A*%
X376512500Y-159105000D03*
%TD*%
%TO.C,REF\u002A\u002A*%
X376512500Y-154105000D03*
%TD*%
%TO.C,REF\u002A\u002A*%
X171700000Y-154105000D03*
%TD*%
%TO.C,REF\u002A\u002A*%
X226587500Y-159105000D03*
%TD*%
%TO.C,REF\u002A\u002A*%
X190805000Y-159105000D03*
%TD*%
%TO.C,REF\u002A\u002A*%
X133350000Y-154105000D03*
%TD*%
%TO.C,REF\u002A\u002A*%
X116287500Y118187500D03*
%TD*%
D17*
%TO.C,D61*%
X261355000Y-21590000D03*
D18*
X261355000Y-13970000D03*
%TD*%
D16*
%TO.C,REF\u002A\u002A*%
X226587500Y124895000D03*
%TD*%
%TO.C,REF\u002A\u002A*%
X226587500Y131895000D03*
%TD*%
%TO.C,REF\u002A\u002A*%
X190805000Y151525000D03*
%TD*%
%TO.C,REF\u002A\u002A*%
X130810000Y151525000D03*
%TD*%
%TO.C,REF\u002A\u002A*%
X133350000Y131895000D03*
%TD*%
%TO.C,REF\u002A\u002A*%
X102000000Y86755000D03*
%TD*%
%TO.C,REF\u002A\u002A*%
X102000000Y37225000D03*
%TD*%
%TO.C,REF\u002A\u002A*%
X119050000Y24937500D03*
%TD*%
%TO.C,REF\u002A\u002A*%
X171755000Y24937500D03*
%TD*%
%TO.C,REF\u002A\u002A*%
X220393243Y20175000D03*
%TD*%
%TO.C,REF\u002A\u002A*%
X164135000Y86755000D03*
%TD*%
%TO.C,REF\u002A\u002A*%
X171700000Y131895000D03*
%TD*%
%TO.C,REF\u002A\u002A*%
X190805000Y124895000D03*
%TD*%
%TO.C,REF\u002A\u002A*%
X224948358Y74601757D03*
%TD*%
%TO.C,REF\u002A\u002A*%
X116287500Y-165812500D03*
%TD*%
D19*
%TO.C,SW0*%
X126352500Y-9207500D03*
X120002500Y-11747500D03*
D20*
X123812500Y-14287500D03*
D21*
X128892500Y-14287500D03*
X118732500Y-14287500D03*
%TD*%
D16*
%TO.C,REF\u002A\u002A*%
X116287500Y-23812500D03*
%TD*%
%TO.C,REF\u002A\u002A*%
X226587500Y-154105000D03*
%TD*%
%TO.C,REF\u002A\u002A*%
X190805000Y-134475000D03*
%TD*%
%TO.C,REF\u002A\u002A*%
X130810000Y-134475000D03*
%TD*%
%TO.C,REF\u002A\u002A*%
X102000000Y-197245000D03*
%TD*%
%TO.C,REF\u002A\u002A*%
X102000000Y-246775000D03*
%TD*%
%TO.C,REF\u002A\u002A*%
X119050000Y-259062500D03*
%TD*%
%TO.C,REF\u002A\u002A*%
X171755000Y-259062500D03*
%TD*%
%TO.C,REF\u002A\u002A*%
X220393243Y-263825000D03*
%TD*%
%TO.C,REF\u002A\u002A*%
X164135000Y-197245000D03*
%TD*%
%TO.C,REF\u002A\u002A*%
X224948358Y-209398243D03*
%TD*%
%TO.C,REF\u002A\u002A*%
X224948358Y-67398243D03*
%TD*%
%TO.C,REF\u002A\u002A*%
X190805000Y-17105000D03*
%TD*%
%TO.C,REF\u002A\u002A*%
X171700000Y-12105000D03*
%TD*%
%TO.C,REF\u002A\u002A*%
X164135000Y-55245000D03*
%TD*%
%TO.C,REF\u002A\u002A*%
X220393243Y-121825000D03*
%TD*%
%TO.C,REF\u002A\u002A*%
X171755000Y-117062500D03*
%TD*%
%TO.C,REF\u002A\u002A*%
X119050000Y-117062500D03*
%TD*%
%TO.C,REF\u002A\u002A*%
X102000000Y-104775000D03*
%TD*%
%TO.C,REF\u002A\u002A*%
X102000000Y-55245000D03*
%TD*%
%TO.C,REF\u002A\u002A*%
X133350000Y-12105000D03*
%TD*%
%TO.C,REF\u002A\u002A*%
X130810000Y7525000D03*
%TD*%
%TO.C,REF\u002A\u002A*%
X190805000Y7525000D03*
%TD*%
%TO.C,REF\u002A\u002A*%
X226587500Y-12105000D03*
%TD*%
%TO.C,REF\u002A\u002A*%
X226587500Y-17105000D03*
%TD*%
D20*
%TO.C,REF\u002A\u002A*%
X403436000Y-73850500D03*
X403436000Y-49974500D03*
D22*
X388196000Y-49974500D03*
X388196000Y-73850500D03*
%TD*%
D19*
%TO.C,SW43*%
X173977500Y-71120000D03*
X167627500Y-73660000D03*
D20*
X171437500Y-76200000D03*
D21*
X176517500Y-76200000D03*
X166357500Y-76200000D03*
%TD*%
D23*
%TO.C,R1*%
X142545000Y-28575000D03*
D24*
X134925000Y-28575000D03*
%TD*%
D25*
%TO.C,DD1*%
X142545000Y-31750000D03*
D26*
X134925000Y-31750000D03*
%TD*%
%TO.C,DD2*%
X133020000Y-35560000D03*
D25*
X140640000Y-35560000D03*
%TD*%
D19*
%TO.C,SW14*%
X215043108Y-29901919D03*
X208252079Y-30711870D03*
D20*
X211274856Y-34151422D03*
D21*
X216181759Y-35466223D03*
X206367953Y-32836621D03*
%TD*%
D19*
%TO.C,SW13*%
X183502500Y-13970000D03*
X177152500Y-16510000D03*
D20*
X180962500Y-19050000D03*
D21*
X186042500Y-19050000D03*
X175882500Y-19050000D03*
%TD*%
D19*
%TO.C,SW42*%
X154927500Y-71120000D03*
X148577500Y-73660000D03*
D20*
X152387500Y-76200000D03*
D21*
X157467500Y-76200000D03*
X147307500Y-76200000D03*
%TD*%
D19*
%TO.C,SW41*%
X135877500Y-85407500D03*
X129527500Y-87947500D03*
D20*
X133337500Y-90487500D03*
D21*
X138417500Y-90487500D03*
X128257500Y-90487500D03*
%TD*%
D19*
%TO.C,SW40*%
X114446000Y-85407500D03*
X108096000Y-87947500D03*
D20*
X111906000Y-90487500D03*
D21*
X116986000Y-90487500D03*
X106826000Y-90487500D03*
%TD*%
%TO.C,D45*%
G36*
G01*
X215608404Y-84617621D02*
X215608404Y-84617621D01*
G75*
G02*
X216649437Y-84016580I821037J-219996D01*
G01*
X216649437Y-84016580D01*
G75*
G02*
X217250478Y-85057613I-219996J-821037D01*
G01*
X217250478Y-85057613D01*
G75*
G02*
X216209445Y-85658654I-821037J219996D01*
G01*
X216209445Y-85658654D01*
G75*
G02*
X215608404Y-84617621I219996J821037D01*
G01*
G37*
D27*
G36*
X208028053Y-83466457D02*
G01*
X208468045Y-81824383D01*
X210110119Y-82264375D01*
X209670127Y-83906449D01*
X208028053Y-83466457D01*
G37*
%TD*%
%TO.C,D44*%
G36*
G01*
X197207517Y-79687118D02*
X197207517Y-79687118D01*
G75*
G02*
X198248550Y-79086077I821037J-219996D01*
G01*
X198248550Y-79086077D01*
G75*
G02*
X198849591Y-80127110I-219996J-821037D01*
G01*
X198849591Y-80127110D01*
G75*
G02*
X197808558Y-80728151I-821037J219996D01*
G01*
X197808558Y-80728151D01*
G75*
G02*
X197207517Y-79687118I219996J821037D01*
G01*
G37*
G36*
X189627166Y-78535954D02*
G01*
X190067158Y-76893880D01*
X191709232Y-77333872D01*
X191269240Y-78975946D01*
X189627166Y-78535954D01*
G37*
%TD*%
D17*
%TO.C,D43*%
X175247500Y-66675000D03*
D18*
X167627500Y-66675000D03*
%TD*%
D17*
%TO.C,D41*%
X137147500Y-80962500D03*
D18*
X129527500Y-80962500D03*
%TD*%
D17*
%TO.C,D40*%
X115716000Y-80962500D03*
D18*
X108096000Y-80962500D03*
%TD*%
%TO.C,D22*%
X148577500Y-28575000D03*
D17*
X156197500Y-28575000D03*
%TD*%
D19*
%TO.C,SW22*%
X154927500Y-33020000D03*
X148577500Y-35560000D03*
D20*
X152387500Y-38100000D03*
D21*
X157467500Y-38100000D03*
X147307500Y-38100000D03*
%TD*%
D19*
%TO.C,SW51*%
X145402500Y-104457500D03*
X139052500Y-106997500D03*
D20*
X142862500Y-109537500D03*
D21*
X147942500Y-109537500D03*
X137782500Y-109537500D03*
%TD*%
D18*
%TO.C,D30*%
X108096000Y-61912500D03*
D17*
X115716000Y-61912500D03*
%TD*%
D19*
%TO.C,SW11*%
X145402500Y-13970000D03*
X139052500Y-16510000D03*
D20*
X142862500Y-19050000D03*
D21*
X147942500Y-19050000D03*
X137782500Y-19050000D03*
%TD*%
D19*
%TO.C,SW50*%
X112065000Y-109220000D03*
X105715000Y-111760000D03*
D20*
X109525000Y-114300000D03*
D21*
X114605000Y-114300000D03*
X104445000Y-114300000D03*
%TD*%
D19*
%TO.C,SW23*%
X178740000Y-33020000D03*
X172390000Y-35560000D03*
D20*
X176200000Y-38100000D03*
D21*
X181280000Y-38100000D03*
X171120000Y-38100000D03*
%TD*%
D18*
%TO.C,D51*%
X139052500Y-100012500D03*
D17*
X146672500Y-100012500D03*
%TD*%
D19*
%TO.C,SW32*%
X154927500Y-52070000D03*
X148577500Y-54610000D03*
D20*
X152387500Y-57150000D03*
D21*
X157467500Y-57150000D03*
X147307500Y-57150000D03*
%TD*%
D27*
%TO.C,D35*%
G36*
X211578967Y-64701041D02*
G01*
X212018959Y-63058967D01*
X213661033Y-63498959D01*
X213221041Y-65141033D01*
X211578967Y-64701041D01*
G37*
G36*
G01*
X219159318Y-65852205D02*
X219159318Y-65852205D01*
G75*
G02*
X220200351Y-65251164I821037J-219996D01*
G01*
X220200351Y-65251164D01*
G75*
G02*
X220801392Y-66292197I-219996J-821037D01*
G01*
X220801392Y-66292197D01*
G75*
G02*
X219760359Y-66893238I-821037J219996D01*
G01*
X219760359Y-66893238D01*
G75*
G02*
X219159318Y-65852205I219996J821037D01*
G01*
G37*
%TD*%
D19*
%TO.C,SW21*%
X135877500Y-47307500D03*
X129527500Y-49847500D03*
D20*
X133337500Y-52387500D03*
D21*
X138417500Y-52387500D03*
X128257500Y-52387500D03*
%TD*%
D19*
%TO.C,SW33*%
X178740000Y-52070000D03*
X172390000Y-54610000D03*
D20*
X176200000Y-57150000D03*
D21*
X181280000Y-57150000D03*
X171120000Y-57150000D03*
%TD*%
D19*
%TO.C,SW31*%
X135877500Y-66357500D03*
X129527500Y-68897500D03*
D20*
X133337500Y-71437500D03*
D21*
X138417500Y-71437500D03*
X128257500Y-71437500D03*
%TD*%
D19*
%TO.C,SW10*%
X126352500Y-28257500D03*
X120002500Y-30797500D03*
D20*
X123812500Y-33337500D03*
D21*
X128892500Y-33337500D03*
X118732500Y-33337500D03*
%TD*%
D18*
%TO.C,D20*%
X120320000Y-50165000D03*
D17*
X120320000Y-57785000D03*
%TD*%
%TO.C,D52*%
X165722500Y-100012500D03*
D18*
X158102500Y-100012500D03*
%TD*%
%TO.C,D32*%
X148577500Y-47625000D03*
D17*
X156197500Y-47625000D03*
%TD*%
%TO.C,D4*%
X203822500Y-11906250D03*
D18*
X196202500Y-11906250D03*
%TD*%
D27*
%TO.C,D53*%
G36*
X183301759Y-102769689D02*
G01*
X183741751Y-101127615D01*
X185383825Y-101567607D01*
X184943833Y-103209681D01*
X183301759Y-102769689D01*
G37*
G36*
G01*
X190882110Y-103920853D02*
X190882110Y-103920853D01*
G75*
G02*
X191923143Y-103319812I821037J-219996D01*
G01*
X191923143Y-103319812D01*
G75*
G02*
X192524184Y-104360845I-219996J-821037D01*
G01*
X192524184Y-104360845D01*
G75*
G02*
X191483151Y-104961886I-821037J219996D01*
G01*
X191483151Y-104961886D01*
G75*
G02*
X190882110Y-103920853I219996J821037D01*
G01*
G37*
%TD*%
D18*
%TO.C,D33*%
X172390000Y-47625000D03*
D17*
X180010000Y-47625000D03*
%TD*%
D18*
%TO.C,D23*%
X172390000Y-28575000D03*
D17*
X180010000Y-28575000D03*
%TD*%
%TO.C,D13*%
X190805000Y-22860000D03*
D18*
X198425000Y-22860000D03*
%TD*%
D17*
%TO.C,D3*%
X192710000Y-9525000D03*
D18*
X185090000Y-9525000D03*
%TD*%
D27*
%TO.C,D54*%
G36*
X201702163Y-107700062D02*
G01*
X202142155Y-106057988D01*
X203784229Y-106497980D01*
X203344237Y-108140054D01*
X201702163Y-107700062D01*
G37*
G36*
G01*
X209282514Y-108851226D02*
X209282514Y-108851226D01*
G75*
G02*
X210323547Y-108250185I821037J-219996D01*
G01*
X210323547Y-108250185D01*
G75*
G02*
X210924588Y-109291218I-219996J-821037D01*
G01*
X210924588Y-109291218D01*
G75*
G02*
X209883555Y-109892259I-821037J219996D01*
G01*
X209883555Y-109892259D01*
G75*
G02*
X209282514Y-108851226I219996J821037D01*
G01*
G37*
%TD*%
%TO.C,D14*%
G36*
G01*
X211999026Y-24484457D02*
X211999026Y-24484457D01*
G75*
G02*
X213040059Y-23883416I821037J-219996D01*
G01*
X213040059Y-23883416D01*
G75*
G02*
X213641100Y-24924449I-219996J-821037D01*
G01*
X213641100Y-24924449D01*
G75*
G02*
X212600067Y-25525490I-821037J219996D01*
G01*
X212600067Y-25525490D01*
G75*
G02*
X211999026Y-24484457I219996J821037D01*
G01*
G37*
G36*
X204418675Y-23333293D02*
G01*
X204858667Y-21691219D01*
X206500741Y-22131211D01*
X206060749Y-23773285D01*
X204418675Y-23333293D01*
G37*
%TD*%
D19*
%TO.C,SW30*%
X114446000Y-66357500D03*
X108096000Y-68897500D03*
D20*
X111906000Y-71437500D03*
D21*
X116986000Y-71437500D03*
X106826000Y-71437500D03*
%TD*%
D19*
%TO.C,SW20*%
X114446000Y-47307500D03*
X108096000Y-49847500D03*
D20*
X111906000Y-52387500D03*
D21*
X116986000Y-52387500D03*
X106826000Y-52387500D03*
%TD*%
D17*
%TO.C,D12*%
X181994375Y-9525000D03*
D18*
X174374375Y-9525000D03*
%TD*%
D19*
%TO.C,SW3*%
X183502500Y5080000D03*
X177152500Y2540000D03*
D20*
X180962500Y0D03*
D21*
X186042500Y0D03*
X175882500Y0D03*
%TD*%
D19*
%TO.C,SW52*%
X164452500Y-104457500D03*
X158102500Y-106997500D03*
D20*
X161912500Y-109537500D03*
D21*
X166992500Y-109537500D03*
X156832500Y-109537500D03*
%TD*%
D17*
%TO.C,D2*%
X162388750Y-9525000D03*
D18*
X154768750Y-9525000D03*
%TD*%
D27*
%TO.C,D25*%
G36*
X217889059Y-46664683D02*
G01*
X218329051Y-45022609D01*
X219971125Y-45462601D01*
X219531133Y-47104675D01*
X217889059Y-46664683D01*
G37*
G36*
G01*
X225469410Y-47815847D02*
X225469410Y-47815847D01*
G75*
G02*
X226510443Y-47214806I821037J-219996D01*
G01*
X226510443Y-47214806D01*
G75*
G02*
X227111484Y-48255839I-219996J-821037D01*
G01*
X227111484Y-48255839D01*
G75*
G02*
X226070451Y-48856880I-821037J219996D01*
G01*
X226070451Y-48856880D01*
G75*
G02*
X225469410Y-47815847I219996J821037D01*
G01*
G37*
%TD*%
%TO.C,D15*%
G36*
X216718967Y-26161041D02*
G01*
X217158959Y-24518967D01*
X218801033Y-24958959D01*
X218361041Y-26601033D01*
X216718967Y-26161041D01*
G37*
G36*
G01*
X224299318Y-27312205D02*
X224299318Y-27312205D01*
G75*
G02*
X225340351Y-26711164I821037J-219996D01*
G01*
X225340351Y-26711164D01*
G75*
G02*
X225941392Y-27752197I-219996J-821037D01*
G01*
X225941392Y-27752197D01*
G75*
G02*
X224900359Y-28353238I-821037J219996D01*
G01*
X224900359Y-28353238D01*
G75*
G02*
X224299318Y-27312205I219996J821037D01*
G01*
G37*
%TD*%
D17*
%TO.C,D5*%
X209728000Y-15240000D03*
D18*
X202108000Y-15240000D03*
%TD*%
D27*
%TO.C,D34*%
G36*
X199157891Y-61367693D02*
G01*
X199597883Y-59725619D01*
X201239957Y-60165611D01*
X200799965Y-61807685D01*
X199157891Y-61367693D01*
G37*
G36*
G01*
X206738242Y-62518857D02*
X206738242Y-62518857D01*
G75*
G02*
X207779275Y-61917816I821037J-219996D01*
G01*
X207779275Y-61917816D01*
G75*
G02*
X208380316Y-62958849I-219996J-821037D01*
G01*
X208380316Y-62958849D01*
G75*
G02*
X207339283Y-63559890I-821037J219996D01*
G01*
X207339283Y-63559890D01*
G75*
G02*
X206738242Y-62518857I219996J821037D01*
G01*
G37*
%TD*%
%TO.C,D24*%
G36*
X199488172Y-41734180D02*
G01*
X199928164Y-40092106D01*
X201570238Y-40532098D01*
X201130246Y-42174172D01*
X199488172Y-41734180D01*
G37*
G36*
G01*
X207068523Y-42885344D02*
X207068523Y-42885344D01*
G75*
G02*
X208109556Y-42284303I821037J-219996D01*
G01*
X208109556Y-42284303D01*
G75*
G02*
X208710597Y-43325336I-219996J-821037D01*
G01*
X208710597Y-43325336D01*
G75*
G02*
X207669564Y-43926377I-821037J219996D01*
G01*
X207669564Y-43926377D01*
G75*
G02*
X207068523Y-42885344I219996J821037D01*
G01*
G37*
%TD*%
D17*
%TO.C,D0*%
X133020000Y-38735000D03*
D18*
X140640000Y-38735000D03*
%TD*%
D28*
%TO.C,C1*%
X217758200Y-15189200D03*
X222758200Y-15189200D03*
%TD*%
D18*
%TO.C,D10*%
X120002500Y-23812500D03*
D17*
X127622500Y-23812500D03*
%TD*%
%TO.C,D11*%
X151673125Y-9525000D03*
D18*
X144053125Y-9525000D03*
%TD*%
D17*
%TO.C,D1*%
X140957500Y-9525000D03*
D18*
X133337500Y-9525000D03*
%TD*%
%TO.C,D50*%
X105714700Y-104775000D03*
D17*
X113334700Y-104775000D03*
%TD*%
D18*
%TO.C,D31*%
X129527500Y-61912500D03*
D17*
X137147500Y-61912500D03*
%TD*%
D18*
%TO.C,D21*%
X129527500Y-42862500D03*
D17*
X137147500Y-42862500D03*
%TD*%
D19*
%TO.C,SW44*%
X195651377Y-83871954D03*
X188860348Y-84681905D03*
D20*
X191883125Y-88121457D03*
D21*
X196790028Y-89436258D03*
X186976222Y-86806656D03*
%TD*%
D19*
%TO.C,SW45*%
X214052264Y-88802457D03*
X207261235Y-89612408D03*
D20*
X210284012Y-93051960D03*
D21*
X215190915Y-94366761D03*
X205377109Y-91737159D03*
%TD*%
D17*
%TO.C,D42*%
X156197500Y-66675000D03*
D18*
X148577500Y-66675000D03*
%TD*%
D19*
%TO.C,SW24*%
X205512383Y-47070180D03*
X198721354Y-47880131D03*
D20*
X201744131Y-51319683D03*
D21*
X206651034Y-52634484D03*
X196837228Y-50004882D03*
%TD*%
D18*
%TO.C,D1000*%
X124460000Y-53340000D03*
D17*
X124460000Y-60960000D03*
%TD*%
D19*
%TO.C,SW35*%
X223582989Y-71634196D03*
X216791960Y-72444147D03*
D20*
X219814737Y-75883699D03*
D21*
X224721640Y-77198500D03*
X214907834Y-74568898D03*
%TD*%
D19*
%TO.C,SW2*%
X164452500Y5080000D03*
X158102500Y2540000D03*
D20*
X161912500Y0D03*
D21*
X166992500Y0D03*
X156832500Y0D03*
%TD*%
D19*
%TO.C,SW25*%
X223913270Y-52000683D03*
X217122241Y-52810634D03*
D20*
X220145018Y-56250186D03*
D21*
X225051921Y-57564987D03*
X215238115Y-54935385D03*
%TD*%
D19*
%TO.C,SW4*%
X202552500Y5080000D03*
X196202500Y2540000D03*
D20*
X200012500Y0D03*
D21*
X205092500Y0D03*
X194932500Y0D03*
%TD*%
D19*
%TO.C,SW34*%
X205182102Y-66703693D03*
X198391073Y-67513644D03*
D20*
X201413850Y-70953196D03*
D21*
X206320753Y-72267997D03*
X196506947Y-69638395D03*
%TD*%
D19*
%TO.C,SW15*%
X233443995Y-34832422D03*
X226652966Y-35642373D03*
D20*
X229675743Y-39081925D03*
D21*
X234582646Y-40396726D03*
X224768840Y-37767124D03*
%TD*%
D19*
%TO.C,SW54*%
X212326596Y-114268688D03*
X205535567Y-115078639D03*
D20*
X208558344Y-118518191D03*
D21*
X213465247Y-119832992D03*
X203651441Y-117203390D03*
%TD*%
D19*
%TO.C,SW12*%
X164452500Y-13970000D03*
X158102500Y-16510000D03*
D20*
X161912500Y-19050000D03*
D21*
X166992500Y-19050000D03*
X156832500Y-19050000D03*
%TD*%
D18*
%TO.C,D1002*%
X122860000Y-69215000D03*
D17*
X122860000Y-76835000D03*
%TD*%
D18*
%TO.C,D1001*%
X120320000Y-69215000D03*
D17*
X120320000Y-76835000D03*
%TD*%
D19*
%TO.C,SW53*%
X189325970Y-108105689D03*
X182534941Y-108915640D03*
D20*
X185557718Y-112355192D03*
D21*
X190464621Y-113669993D03*
X180650815Y-111040391D03*
%TD*%
D19*
%TO.C,SW5*%
X221602500Y5080000D03*
X215252500Y2540000D03*
D20*
X219062500Y0D03*
D21*
X224142500Y0D03*
X213982500Y0D03*
%TD*%
D15*
%TO.C,SWITCH0*%
X101270000Y6350000D03*
X103810000Y6350000D03*
X106350000Y6350000D03*
X108890000Y6350000D03*
X111430000Y6350000D03*
%TD*%
D19*
%TO.C,SW1*%
X145402500Y5080000D03*
X139052500Y2540000D03*
D20*
X142862500Y0D03*
D21*
X147942500Y0D03*
X137782500Y0D03*
%TD*%
D17*
%TO.C,D73*%
X337131660Y-9525000D03*
D18*
X329511660Y-9525000D03*
%TD*%
D17*
%TO.C,D64*%
X347573880Y-9525000D03*
D18*
X339953880Y-9525000D03*
%TD*%
D16*
%TO.C,REF\u002A\u002A*%
X247162500Y124895000D03*
%TD*%
%TO.C,REF\u002A\u002A*%
X328665000Y86755000D03*
%TD*%
%TO.C,REF\u002A\u002A*%
X346445000Y124895000D03*
%TD*%
%TO.C,REF\u002A\u002A*%
X336285000Y24937500D03*
%TD*%
%TO.C,REF\u002A\u002A*%
X376512500Y131895000D03*
%TD*%
%TO.C,REF\u002A\u002A*%
X376512500Y124895000D03*
%TD*%
%TO.C,REF\u002A\u002A*%
X283262500Y151525000D03*
%TD*%
%TO.C,REF\u002A\u002A*%
X326425000Y131895000D03*
%TD*%
%TO.C,REF\u002A\u002A*%
X248594257Y20175000D03*
%TD*%
%TO.C,REF\u002A\u002A*%
X247162500Y131895000D03*
%TD*%
%TO.C,REF\u002A\u002A*%
X388037500Y20175000D03*
%TD*%
%TO.C,REF\u002A\u002A*%
X405087500Y77865000D03*
%TD*%
%TO.C,REF\u002A\u002A*%
X244039142Y74601757D03*
%TD*%
%TO.C,REF\u002A\u002A*%
X405087500Y37225000D03*
%TD*%
%TO.C,REF\u002A\u002A*%
X405087500Y116187500D03*
%TD*%
%TO.C,REF\u002A\u002A*%
X340412500Y151525000D03*
%TD*%
%TO.C,REF\u002A\u002A*%
X328665000Y-197245000D03*
%TD*%
%TO.C,REF\u002A\u002A*%
X336285000Y-259062500D03*
%TD*%
%TO.C,REF\u002A\u002A*%
X283262500Y-134475000D03*
%TD*%
%TO.C,REF\u002A\u002A*%
X248594257Y-263825000D03*
%TD*%
%TO.C,REF\u002A\u002A*%
X247162500Y-154105000D03*
%TD*%
%TO.C,REF\u002A\u002A*%
X388037500Y-263825000D03*
%TD*%
%TO.C,REF\u002A\u002A*%
X405087500Y-206135000D03*
%TD*%
%TO.C,REF\u002A\u002A*%
X244039142Y-209398243D03*
%TD*%
%TO.C,REF\u002A\u002A*%
X405087500Y-246775000D03*
%TD*%
%TO.C,REF\u002A\u002A*%
X405087500Y-167812500D03*
%TD*%
%TO.C,REF\u002A\u002A*%
X340412500Y-134475000D03*
%TD*%
%TO.C,REF\u002A\u002A*%
X247162500Y-17105000D03*
%TD*%
%TO.C,REF\u002A\u002A*%
X247162500Y-12105000D03*
%TD*%
%TO.C,REF\u002A\u002A*%
X283262500Y7525000D03*
%TD*%
%TO.C,REF\u002A\u002A*%
X340412500Y7525000D03*
%TD*%
%TO.C,REF\u002A\u002A*%
X376512500Y-17105000D03*
%TD*%
%TO.C,REF\u002A\u002A*%
X376512500Y-12105000D03*
%TD*%
%TO.C,REF\u002A\u002A*%
X326425000Y-12105000D03*
%TD*%
%TO.C,REF\u002A\u002A*%
X346445000Y-17105000D03*
%TD*%
%TO.C,REF\u002A\u002A*%
X244039142Y-67398243D03*
%TD*%
%TO.C,REF\u002A\u002A*%
X405087500Y-25812500D03*
%TD*%
%TO.C,REF\u002A\u002A*%
X405087500Y-64135000D03*
%TD*%
%TO.C,REF\u002A\u002A*%
X328665000Y-55245000D03*
%TD*%
%TO.C,REF\u002A\u002A*%
X405087500Y-104775000D03*
%TD*%
%TO.C,REF\u002A\u002A*%
X388037500Y-121825000D03*
%TD*%
%TO.C,REF\u002A\u002A*%
X336285000Y-117062500D03*
%TD*%
%TO.C,REF\u002A\u002A*%
X248594257Y-121825000D03*
%TD*%
D19*
%TO.C,SW70*%
X254251074Y-29819744D03*
X248774845Y-33916697D03*
D20*
X253112423Y-35384048D03*
D21*
X258019326Y-34069247D03*
X248205520Y-36698849D03*
%TD*%
D19*
%TO.C,SW77*%
X397721000Y-28257500D03*
X391371000Y-30797500D03*
D20*
X395181000Y-33337500D03*
D21*
X400261000Y-33337500D03*
X390101000Y-33337500D03*
%TD*%
D17*
%TO.C,D77*%
X398991000Y-42862500D03*
D18*
X391371000Y-42862500D03*
%TD*%
D17*
%TO.C,D66*%
X362320000Y-19685000D03*
D18*
X354700000Y-19685000D03*
%TD*%
D25*
%TO.C,DD4*%
X354700000Y-13970000D03*
D26*
X362320000Y-13970000D03*
%TD*%
D25*
%TO.C,DD3*%
X354700000Y-10160000D03*
D26*
X362320000Y-10160000D03*
%TD*%
D19*
%TO.C,SW66*%
X371527500Y5080000D03*
X365177500Y2540000D03*
D20*
X368987500Y0D03*
D21*
X374067500Y0D03*
X363907500Y0D03*
%TD*%
D19*
%TO.C,SW114*%
X362002500Y-109220000D03*
X355652500Y-111760000D03*
D20*
X359462500Y-114300000D03*
D21*
X364542500Y-114300000D03*
X354382500Y-114300000D03*
%TD*%
D23*
%TO.C,R2*%
X354700000Y-17145000D03*
D24*
X362320000Y-17145000D03*
%TD*%
D17*
%TO.C,D1005*%
X371267000Y-11710000D03*
D18*
X371267000Y-19330000D03*
%TD*%
D17*
%TO.C,D1004*%
X368727000Y-11710000D03*
D18*
X368727000Y-19330000D03*
%TD*%
D17*
%TO.C,D1003*%
X366187000Y-11710000D03*
D18*
X366187000Y-19330000D03*
%TD*%
%TO.C,D81*%
G36*
G01*
X273729318Y-39737795D02*
X273729318Y-39737795D01*
G75*
G02*
X274330359Y-38696762I821037J219996D01*
G01*
X274330359Y-38696762D01*
G75*
G02*
X275371392Y-39297803I219996J-821037D01*
G01*
X275371392Y-39297803D01*
G75*
G02*
X274770351Y-40338836I-821037J-219996D01*
G01*
X274770351Y-40338836D01*
G75*
G02*
X273729318Y-39737795I-219996J821037D01*
G01*
G37*
D27*
G36*
X266588959Y-42531033D02*
G01*
X266148967Y-40888959D01*
X267791041Y-40448967D01*
X268231033Y-42091041D01*
X266588959Y-42531033D01*
G37*
%TD*%
%TO.C,D80*%
G36*
G01*
X263516816Y-42548387D02*
X263516816Y-42548387D01*
G75*
G02*
X264117857Y-41507354I821037J219996D01*
G01*
X264117857Y-41507354D01*
G75*
G02*
X265158890Y-42108395I219996J-821037D01*
G01*
X265158890Y-42108395D01*
G75*
G02*
X264557849Y-43149428I-821037J-219996D01*
G01*
X264557849Y-43149428D01*
G75*
G02*
X263516816Y-42548387I-219996J821037D01*
G01*
G37*
G36*
X256376457Y-45341625D02*
G01*
X255936465Y-43699551D01*
X257578539Y-43259559D01*
X258018531Y-44901633D01*
X256376457Y-45341625D01*
G37*
%TD*%
D18*
%TO.C,D71*%
X256910000Y-13970000D03*
D17*
X256910000Y-21590000D03*
%TD*%
D19*
%TO.C,SW111*%
X284568433Y-106790888D03*
X279092204Y-110887841D03*
D20*
X283429782Y-112355192D03*
D21*
X288336685Y-111040391D03*
X278522879Y-113669993D03*
%TD*%
D19*
%TO.C,SW113*%
X328665000Y-104457500D03*
X322315000Y-106997500D03*
D20*
X326125000Y-109537500D03*
D21*
X331205000Y-109537500D03*
X321045000Y-109537500D03*
%TD*%
D17*
%TO.C,D74*%
X332475000Y-28575000D03*
D18*
X340095000Y-28575000D03*
%TD*%
D17*
%TO.C,D72*%
X306722220Y-9525000D03*
D18*
X299102220Y-9525000D03*
%TD*%
D17*
%TO.C,D63*%
X317164440Y-9525000D03*
D18*
X309544440Y-9525000D03*
%TD*%
D17*
%TO.C,D62*%
X296280000Y-9525000D03*
D18*
X288660000Y-9525000D03*
%TD*%
D17*
%TO.C,D60*%
X265800000Y-24130000D03*
D18*
X265800000Y-16510000D03*
%TD*%
D19*
%TO.C,SW91*%
X268712301Y-65388892D03*
X263236072Y-69485845D03*
D20*
X267573650Y-70953196D03*
D21*
X272480553Y-69638395D03*
X262666747Y-72267997D03*
%TD*%
D19*
%TO.C,SW116*%
X400102500Y-109220000D03*
X393752500Y-111760000D03*
D20*
X397562500Y-114300000D03*
D21*
X402642500Y-114300000D03*
X392482500Y-114300000D03*
%TD*%
D19*
%TO.C,SW115*%
X381052500Y-109220000D03*
X374702500Y-111760000D03*
D20*
X378512500Y-114300000D03*
D21*
X383592500Y-114300000D03*
X373432500Y-114300000D03*
%TD*%
D19*
%TO.C,SW112*%
X309615000Y-104457500D03*
X303265000Y-106997500D03*
D20*
X307075000Y-109537500D03*
D21*
X312155000Y-109537500D03*
X301995000Y-109537500D03*
%TD*%
D19*
%TO.C,SW110*%
X261567807Y-112953887D03*
X256091578Y-117050840D03*
D20*
X260429156Y-118518191D03*
D21*
X265336059Y-117203390D03*
X255522253Y-119832992D03*
%TD*%
D19*
%TO.C,SW106*%
X381052500Y-90170000D03*
X374702500Y-92710000D03*
D20*
X378512500Y-95250000D03*
D21*
X383592500Y-95250000D03*
X373432500Y-95250000D03*
%TD*%
D19*
%TO.C,SW105*%
X357240000Y-85407500D03*
X350890000Y-87947500D03*
D20*
X354700000Y-90487500D03*
D21*
X359780000Y-90487500D03*
X349620000Y-90487500D03*
%TD*%
D19*
%TO.C,SW104*%
X338190000Y-85407500D03*
X331840000Y-87947500D03*
D20*
X335650000Y-90487500D03*
D21*
X340730000Y-90487500D03*
X330570000Y-90487500D03*
%TD*%
D19*
%TO.C,SW103*%
X319140000Y-71120000D03*
X312790000Y-73660000D03*
D20*
X316600000Y-76200000D03*
D21*
X321680000Y-76200000D03*
X311520000Y-76200000D03*
%TD*%
D19*
%TO.C,SW102*%
X300090000Y-71120000D03*
X293740000Y-73660000D03*
D20*
X297550000Y-76200000D03*
D21*
X302630000Y-76200000D03*
X292470000Y-76200000D03*
%TD*%
D19*
%TO.C,SW101*%
X278243026Y-82557153D03*
X272766797Y-86654106D03*
D20*
X277104375Y-88121457D03*
D21*
X282011278Y-86806656D03*
X272197472Y-89436258D03*
%TD*%
D19*
%TO.C,SW100*%
X259842139Y-87487656D03*
X254365910Y-91584609D03*
D20*
X258703488Y-93051960D03*
D21*
X263610391Y-91737159D03*
X253796585Y-94366761D03*
%TD*%
D19*
%TO.C,SW96*%
X376290000Y-66357500D03*
X369940000Y-68897500D03*
D20*
X373750000Y-71437500D03*
D21*
X378830000Y-71437500D03*
X368670000Y-71437500D03*
%TD*%
D19*
%TO.C,SW95*%
X357240000Y-66357500D03*
X350890000Y-68897500D03*
D20*
X354700000Y-71437500D03*
D21*
X359780000Y-71437500D03*
X349620000Y-71437500D03*
%TD*%
D19*
%TO.C,SW94*%
X338190000Y-66357500D03*
X331840000Y-68897500D03*
D20*
X335650000Y-71437500D03*
D21*
X340730000Y-71437500D03*
X330570000Y-71437500D03*
%TD*%
D19*
%TO.C,SW93*%
X319140000Y-52070000D03*
X312790000Y-54610000D03*
D20*
X316600000Y-57150000D03*
D21*
X321680000Y-57150000D03*
X311520000Y-57150000D03*
%TD*%
D19*
%TO.C,SW92*%
X295327500Y-52070000D03*
X288977500Y-54610000D03*
D20*
X292787500Y-57150000D03*
D21*
X297867500Y-57150000D03*
X287707500Y-57150000D03*
%TD*%
D19*
%TO.C,SW90*%
X250311414Y-70319395D03*
X244835185Y-74416348D03*
D20*
X249172763Y-75883699D03*
D21*
X254079666Y-74568898D03*
X244265860Y-77198500D03*
%TD*%
D19*
%TO.C,SW87*%
X397721000Y-56832500D03*
X391371000Y-59372500D03*
D20*
X395181000Y-61912500D03*
D21*
X400261000Y-61912500D03*
X390101000Y-61912500D03*
%TD*%
D19*
%TO.C,SW86*%
X366765000Y-47307500D03*
X360415000Y-49847500D03*
D20*
X364225000Y-52387500D03*
D21*
X369305000Y-52387500D03*
X359145000Y-52387500D03*
%TD*%
D19*
%TO.C,SW85*%
X347715000Y-47307500D03*
X341365000Y-49847500D03*
D20*
X345175000Y-52387500D03*
D21*
X350255000Y-52387500D03*
X340095000Y-52387500D03*
%TD*%
D19*
%TO.C,SW84*%
X328665000Y-33020000D03*
X322315000Y-35560000D03*
D20*
X326125000Y-38100000D03*
D21*
X331205000Y-38100000D03*
X321045000Y-38100000D03*
%TD*%
D19*
%TO.C,SW83*%
X309615000Y-33020000D03*
X303265000Y-35560000D03*
D20*
X307075000Y-38100000D03*
D21*
X312155000Y-38100000D03*
X301995000Y-38100000D03*
%TD*%
D19*
%TO.C,SW82*%
X290565000Y-33020000D03*
X284215000Y-35560000D03*
D20*
X288025000Y-38100000D03*
D21*
X293105000Y-38100000D03*
X282945000Y-38100000D03*
%TD*%
D19*
%TO.C,SW81*%
X268382020Y-45755379D03*
X262905791Y-49852332D03*
D20*
X267243369Y-51319683D03*
D21*
X272150272Y-50004882D03*
X262336466Y-52634484D03*
%TD*%
D19*
%TO.C,SW80*%
X249981133Y-50685882D03*
X244504904Y-54782835D03*
D20*
X248842482Y-56250186D03*
D21*
X253749385Y-54935385D03*
X243935579Y-57564987D03*
%TD*%
D19*
%TO.C,SW76*%
X376290000Y-28257500D03*
X369940000Y-30797500D03*
D20*
X373750000Y-33337500D03*
D21*
X378830000Y-33337500D03*
X368670000Y-33337500D03*
%TD*%
D19*
%TO.C,SW75*%
X357240000Y-28257500D03*
X350890000Y-30797500D03*
D20*
X354700000Y-33337500D03*
D21*
X359780000Y-33337500D03*
X349620000Y-33337500D03*
%TD*%
D19*
%TO.C,SW74*%
X338190000Y-13970000D03*
X331840000Y-16510000D03*
D20*
X335650000Y-19050000D03*
D21*
X340730000Y-19050000D03*
X330570000Y-19050000D03*
%TD*%
D19*
%TO.C,SW73*%
X319140000Y-13970000D03*
X312790000Y-16510000D03*
D20*
X316600000Y-19050000D03*
D21*
X321680000Y-19050000D03*
X311520000Y-19050000D03*
%TD*%
D19*
%TO.C,SW72*%
X300090000Y-13970000D03*
X293740000Y-16510000D03*
D20*
X297550000Y-19050000D03*
D21*
X302630000Y-19050000D03*
X292470000Y-19050000D03*
%TD*%
D19*
%TO.C,SW71*%
X281040000Y-13970000D03*
X274690000Y-16510000D03*
D20*
X278500000Y-19050000D03*
D21*
X283580000Y-19050000D03*
X273420000Y-19050000D03*
%TD*%
D19*
%TO.C,SW65*%
X352477500Y5080000D03*
X346127500Y2540000D03*
D20*
X349937500Y0D03*
D21*
X355017500Y0D03*
X344857500Y0D03*
%TD*%
D19*
%TO.C,SW64*%
X333427500Y5080000D03*
X327077500Y2540000D03*
D20*
X330887500Y0D03*
D21*
X335967500Y0D03*
X325807500Y0D03*
%TD*%
D19*
%TO.C,SW63*%
X314377500Y5080000D03*
X308027500Y2540000D03*
D20*
X311837500Y0D03*
D21*
X316917500Y0D03*
X306757500Y0D03*
%TD*%
D19*
%TO.C,SW62*%
X295327500Y5080000D03*
X288977500Y2540000D03*
D20*
X292787500Y0D03*
D21*
X297867500Y0D03*
X287707500Y0D03*
%TD*%
D19*
%TO.C,SW61*%
X276277500Y5080000D03*
X269927500Y2540000D03*
D20*
X273737500Y0D03*
D21*
X278817500Y0D03*
X268657500Y0D03*
%TD*%
D19*
%TO.C,SW60*%
X257227500Y5080000D03*
X250877500Y2540000D03*
D20*
X254687500Y0D03*
D21*
X259767500Y0D03*
X249607500Y0D03*
%TD*%
D17*
%TO.C,D116*%
X401372500Y-104775000D03*
D18*
X393752500Y-104775000D03*
%TD*%
D17*
%TO.C,D115*%
X382322500Y-104775000D03*
D18*
X374702500Y-104775000D03*
%TD*%
D17*
%TO.C,D114*%
X348060000Y-104617500D03*
D18*
X355680000Y-104617500D03*
%TD*%
D17*
%TO.C,D113*%
X329935000Y-100012500D03*
D18*
X322315000Y-100012500D03*
%TD*%
D17*
%TO.C,D112*%
X310885000Y-100012500D03*
D18*
X303265000Y-100012500D03*
%TD*%
%TO.C,D111*%
G36*
G01*
X283823672Y-102388645D02*
X283823672Y-102388645D01*
G75*
G02*
X284424713Y-101347612I821037J219996D01*
G01*
X284424713Y-101347612D01*
G75*
G02*
X285465746Y-101948653I219996J-821037D01*
G01*
X285465746Y-101948653D01*
G75*
G02*
X284864705Y-102989686I-821037J-219996D01*
G01*
X284864705Y-102989686D01*
G75*
G02*
X283823672Y-102388645I-219996J821037D01*
G01*
G37*
D27*
G36*
X276683313Y-105181883D02*
G01*
X276243321Y-103539809D01*
X277885395Y-103099817D01*
X278325387Y-104741891D01*
X276683313Y-105181883D01*
G37*
%TD*%
%TO.C,D110*%
G36*
G01*
X265423268Y-107319018D02*
X265423268Y-107319018D01*
G75*
G02*
X266024309Y-106277985I821037J219996D01*
G01*
X266024309Y-106277985D01*
G75*
G02*
X267065342Y-106879026I219996J-821037D01*
G01*
X267065342Y-106879026D01*
G75*
G02*
X266464301Y-107920059I-821037J-219996D01*
G01*
X266464301Y-107920059D01*
G75*
G02*
X265423268Y-107319018I-219996J821037D01*
G01*
G37*
G36*
X258282909Y-110112256D02*
G01*
X257842917Y-108470182D01*
X259484991Y-108030190D01*
X259924983Y-109672264D01*
X258282909Y-110112256D01*
G37*
%TD*%
D17*
%TO.C,D106*%
X382322500Y-85725000D03*
D18*
X374702500Y-85725000D03*
%TD*%
D17*
%TO.C,D105*%
X358510000Y-80962500D03*
D18*
X350890000Y-80962500D03*
%TD*%
D17*
%TO.C,D104*%
X339460000Y-80962500D03*
D18*
X331840000Y-80962500D03*
%TD*%
D17*
%TO.C,D103*%
X320410000Y-66675000D03*
D18*
X312790000Y-66675000D03*
%TD*%
D17*
%TO.C,D102*%
X301360000Y-66675000D03*
D18*
X293740000Y-66675000D03*
%TD*%
%TO.C,D101*%
G36*
G01*
X277498265Y-78154910D02*
X277498265Y-78154910D01*
G75*
G02*
X278099306Y-77113877I821037J219996D01*
G01*
X278099306Y-77113877D01*
G75*
G02*
X279140339Y-77714918I219996J-821037D01*
G01*
X279140339Y-77714918D01*
G75*
G02*
X278539298Y-78755951I-821037J-219996D01*
G01*
X278539298Y-78755951D01*
G75*
G02*
X277498265Y-78154910I-219996J821037D01*
G01*
G37*
D27*
G36*
X270357906Y-80948148D02*
G01*
X269917914Y-79306074D01*
X271559988Y-78866082D01*
X271999980Y-80508156D01*
X270357906Y-80948148D01*
G37*
%TD*%
%TO.C,D100*%
G36*
G01*
X259097378Y-83085413D02*
X259097378Y-83085413D01*
G75*
G02*
X259698419Y-82044380I821037J219996D01*
G01*
X259698419Y-82044380D01*
G75*
G02*
X260739452Y-82645421I219996J-821037D01*
G01*
X260739452Y-82645421D01*
G75*
G02*
X260138411Y-83686454I-821037J-219996D01*
G01*
X260138411Y-83686454D01*
G75*
G02*
X259097378Y-83085413I-219996J821037D01*
G01*
G37*
G36*
X251957019Y-85878651D02*
G01*
X251517027Y-84236577D01*
X253159101Y-83796585D01*
X253599093Y-85438659D01*
X251957019Y-85878651D01*
G37*
%TD*%
D17*
%TO.C,D96*%
X377560000Y-61912500D03*
D18*
X369940000Y-61912500D03*
%TD*%
D17*
%TO.C,D95*%
X358510000Y-61912500D03*
D18*
X350890000Y-61912500D03*
%TD*%
D17*
%TO.C,D94*%
X339460000Y-61912500D03*
D18*
X331840000Y-61912500D03*
%TD*%
D17*
%TO.C,D93*%
X320410000Y-47625000D03*
D18*
X312790000Y-47625000D03*
%TD*%
D17*
%TO.C,D92*%
X296597500Y-47625000D03*
D18*
X288977500Y-47625000D03*
%TD*%
%TO.C,D91*%
G36*
G01*
X267967540Y-60986649D02*
X267967540Y-60986649D01*
G75*
G02*
X268568581Y-59945616I821037J219996D01*
G01*
X268568581Y-59945616D01*
G75*
G02*
X269609614Y-60546657I219996J-821037D01*
G01*
X269609614Y-60546657D01*
G75*
G02*
X269008573Y-61587690I-821037J-219996D01*
G01*
X269008573Y-61587690D01*
G75*
G02*
X267967540Y-60986649I-219996J821037D01*
G01*
G37*
D27*
G36*
X260827181Y-63779887D02*
G01*
X260387189Y-62137813D01*
X262029263Y-61697821D01*
X262469255Y-63339895D01*
X260827181Y-63779887D01*
G37*
%TD*%
%TO.C,D90*%
G36*
G01*
X254166875Y-64684526D02*
X254166875Y-64684526D01*
G75*
G02*
X254767916Y-63643493I821037J219996D01*
G01*
X254767916Y-63643493D01*
G75*
G02*
X255808949Y-64244534I219996J-821037D01*
G01*
X255808949Y-64244534D01*
G75*
G02*
X255207908Y-65285567I-821037J-219996D01*
G01*
X255207908Y-65285567D01*
G75*
G02*
X254166875Y-64684526I-219996J821037D01*
G01*
G37*
G36*
X247026516Y-67477764D02*
G01*
X246586524Y-65835690D01*
X248228598Y-65395698D01*
X248668590Y-67037772D01*
X247026516Y-67477764D01*
G37*
%TD*%
D17*
%TO.C,D87*%
X398991000Y-52387500D03*
D18*
X391371000Y-52387500D03*
%TD*%
D17*
%TO.C,D86*%
X368035000Y-42862500D03*
D18*
X360415000Y-42862500D03*
%TD*%
D17*
%TO.C,D85*%
X348985000Y-42862500D03*
D18*
X341365000Y-42862500D03*
%TD*%
D17*
%TO.C,D84*%
X329935000Y-28575000D03*
D18*
X322315000Y-28575000D03*
%TD*%
D17*
%TO.C,D83*%
X310885000Y-28575000D03*
D18*
X303265000Y-28575000D03*
%TD*%
D17*
%TO.C,D82*%
X291835000Y-28575000D03*
D18*
X284215000Y-28575000D03*
%TD*%
D17*
%TO.C,D76*%
X376620000Y-23812500D03*
D18*
X369000000Y-23812500D03*
%TD*%
D17*
%TO.C,D75*%
X358510000Y-23812500D03*
D18*
X350890000Y-23812500D03*
%TD*%
D17*
%TO.C,D70*%
X252465000Y-24130000D03*
D18*
X252465000Y-16510000D03*
%TD*%
D17*
%TO.C,D65*%
X350255000Y-12700000D03*
D18*
X350255000Y-20320000D03*
%TD*%
D28*
%TO.C,C2*%
X255870000Y-11000000D03*
X250870000Y-11000000D03*
%TD*%
M02*
