M48
; DRILL file {KiCad (5.1.6-0-10_14)} date Friday, September 04, 2020 at 01:20:58 PM
; FORMAT={-:-/ absolute / metric / decimal}
; #@! TF.CreationDate,2020-09-04T13:20:58+09:00
; #@! TF.GenerationSoftware,Kicad,Pcbnew,(5.1.6-0-10_14)
; #@! TF.FileFunction,Plated,1,2,PTH
FMAT,2
METRIC
T1C0.700
T2C0.800
T3C0.813
T4C0.900
T5C1.000
T6C1.100
%
G90
G05
T1
X354.7Y-17.145
X362.32Y-17.145
X134.925Y-28.575
X142.545Y-28.575
T2
X360.415Y-42.862
X368.035Y-42.862
X196.202Y-11.906
X203.822Y-11.906
X256.977Y-44.301
X264.338Y-42.328
X348.06Y-104.617
X355.68Y-104.617
X133.338Y-9.525
X140.957Y-9.525
X133.02Y-38.735
X140.64Y-38.735
X350.89Y-80.962
X358.51Y-80.962
X108.096Y-61.912
X115.716Y-61.912
X391.371Y-52.387
X398.991Y-52.387
X120.32Y-69.215
X120.32Y-76.835
X139.052Y-100.012
X146.672Y-100.012
X267.19Y-41.49
X274.55Y-39.518
X374.702Y-104.775
X382.322Y-104.775
X205.46Y-22.732
X212.82Y-24.704
X258.884Y-109.071
X266.244Y-107.099
X261.355Y-13.97
X261.355Y-21.59
X374.702Y-85.725
X382.322Y-85.725
X218.93Y-46.064
X226.29Y-48.036
X247.628Y-66.437
X254.988Y-64.465
X174.374Y-9.525
X181.994Y-9.525
X122.86Y-69.215
X122.86Y-76.835
X148.577Y-47.625
X156.197Y-47.625
X202.743Y-107.099
X210.104Y-109.071
X158.102Y-100.012
X165.722Y-100.012
X154.769Y-9.525
X162.389Y-9.525
X329.512Y-9.525
X337.132Y-9.525
X148.577Y-66.675
X156.197Y-66.675
X265.8Y-16.51
X265.8Y-24.13
X200.199Y-60.767
X207.559Y-62.739
X368.727Y-11.71
X368.727Y-19.33
X261.428Y-62.739
X268.789Y-60.767
X369.94Y-61.912
X377.56Y-61.912
X277.284Y-104.141
X284.645Y-102.169
X332.475Y-28.575
X340.095Y-28.575
X288.977Y-47.625
X296.597Y-47.625
X105.715Y-104.775
X113.335Y-104.775
X250.87Y-11.0
X255.87Y-11.0
X391.371Y-42.862
X398.991Y-42.862
X252.558Y-84.838
X259.918Y-82.865
X284.215Y-28.575
X291.835Y-28.575
X312.79Y-47.625
X320.41Y-47.625
X172.39Y-28.575
X180.01Y-28.575
X217.76Y-25.56
X225.12Y-27.532
X124.46Y-53.34
X124.46Y-60.96
X350.255Y-12.7
X350.255Y-20.32
X288.66Y-9.525
X296.28Y-9.525
X270.959Y-79.907
X278.319Y-77.935
X167.627Y-66.675
X175.248Y-66.675
X108.096Y-80.962
X115.716Y-80.962
X209.069Y-82.865
X216.429Y-84.838
X184.343Y-102.169
X191.703Y-104.141
X303.265Y-28.575
X310.885Y-28.575
X144.053Y-9.525
X151.673Y-9.525
X331.84Y-61.912
X339.46Y-61.912
X172.39Y-47.625
X180.01Y-47.625
X339.954Y-9.525
X347.574Y-9.525
X200.529Y-41.133
X207.89Y-43.105
X252.465Y-16.51
X252.465Y-24.13
X371.267Y-11.71
X371.267Y-19.33
X190.668Y-77.935
X198.029Y-79.907
X366.187Y-11.71
X366.187Y-19.33
X309.544Y-9.525
X317.164Y-9.525
X293.74Y-66.675
X301.36Y-66.675
X393.752Y-104.775
X401.373Y-104.775
X322.315Y-28.575
X329.935Y-28.575
X217.758Y-15.189
X222.758Y-15.189
X120.002Y-23.812
X127.622Y-23.812
X350.89Y-61.912
X358.51Y-61.912
X303.265Y-100.012
X310.885Y-100.012
X350.89Y-23.812
X358.51Y-23.812
X129.528Y-80.962
X137.148Y-80.962
X129.528Y-42.862
X137.148Y-42.862
X299.102Y-9.525
X306.722Y-9.525
X312.79Y-66.675
X320.41Y-66.675
X185.09Y-9.525
X192.71Y-9.525
X120.32Y-50.165
X120.32Y-57.785
X148.577Y-28.575
X156.197Y-28.575
X341.365Y-42.862
X348.985Y-42.862
X212.62Y-64.1
X219.98Y-66.072
X354.7Y-19.685
X362.32Y-19.685
X256.91Y-13.97
X256.91Y-21.59
X322.315Y-100.012
X329.935Y-100.012
X369.0Y-23.812
X376.62Y-23.812
X129.528Y-61.912
X137.148Y-61.912
X202.108Y-15.24
X209.728Y-15.24
X331.84Y-80.962
X339.46Y-80.962
X190.805Y-22.86
X198.425Y-22.86
T3
X247.385Y7.62
X247.385Y-7.62
X249.925Y7.62
X249.925Y-7.62
X252.465Y7.62
X252.465Y-7.62
X255.005Y7.62
X255.005Y-7.62
X257.545Y7.62
X257.545Y-7.62
X260.085Y7.62
X260.085Y-7.62
X262.625Y7.62
X262.625Y-7.62
X265.165Y7.62
X265.165Y-7.62
X267.705Y7.62
X267.705Y-7.62
X270.245Y7.62
X270.245Y-7.62
X272.785Y7.62
X272.785Y-7.62
X275.325Y7.62
X275.325Y-7.62
X277.865Y7.62
X277.865Y-7.62
X195.885Y7.62
X195.885Y-7.62
X198.425Y7.62
X198.425Y-7.62
X200.965Y7.62
X200.965Y-7.62
X203.505Y7.62
X203.505Y-7.62
X206.045Y7.62
X206.045Y-7.62
X208.585Y7.62
X208.585Y-7.62
X211.125Y7.62
X211.125Y-7.62
X213.665Y7.62
X213.665Y-7.62
X216.205Y7.62
X216.205Y-7.62
X218.745Y7.62
X218.745Y-7.62
X221.285Y7.62
X221.285Y-7.62
X223.825Y7.62
X223.825Y-7.62
X226.365Y7.62
X226.365Y-7.62
T4
X301.66Y-2.29
X321.66Y-2.29
X113.57Y-2.29
X133.57Y-2.29
X339.76Y-2.29
X359.76Y-2.29
X172.1Y-2.29
X102.54Y1.905
X102.54Y-0.635
X390.895Y1.905
X390.895Y-0.635
X152.1Y-2.29
T5
X106.295Y1.905
X106.295Y-4.595
X110.795Y1.905
X110.795Y-4.595
X382.005Y6.35
X384.545Y6.35
X387.085Y6.35
X389.625Y6.35
X392.165Y6.35
X101.27Y6.35
X103.81Y6.35
X106.35Y6.35
X108.89Y6.35
X111.43Y6.35
X106.295Y-15.875
X106.295Y-22.375
X110.795Y-15.875
X110.795Y-22.375
X382.585Y-6.985
X382.585Y-13.485
X387.085Y-6.985
X387.085Y-13.485
X382.585Y-15.875
X382.585Y-22.375
X387.085Y-15.875
X387.085Y-22.375
X106.295Y-6.985
X106.295Y-13.485
X110.795Y-6.985
X110.795Y-13.485
X382.585Y1.905
X382.585Y-4.595
X387.085Y1.905
X387.085Y-4.595
T6
X133.02Y-35.56
X140.64Y-35.56
X354.7Y-13.97
X362.32Y-13.97
X134.925Y-31.75
X142.545Y-31.75
X354.7Y-10.16
X362.32Y-10.16
T0
M30
