M48
; DRILL file {KiCad (5.1.6-0-10_14)} date Friday, September 04, 2020 at 01:20:58 PM
; FORMAT={-:-/ absolute / metric / decimal}
; #@! TF.CreationDate,2020-09-04T13:20:58+09:00
; #@! TF.GenerationSoftware,Kicad,Pcbnew,(5.1.6-0-10_14)
; #@! TF.FileFunction,NonPlated,1,2,NPTH
FMAT,2
METRIC
T1C1.702
T2C2.200
T3C3.000
T4C3.048
T5C3.988
%
G90
G05
T1
X390.101Y-61.912
X400.261Y-61.912
X287.707Y0.0
X297.868Y0.0
X311.52Y-76.2
X321.68Y-76.2
X128.257Y-90.487
X138.417Y-90.487
X330.57Y-90.487
X340.73Y-90.487
X248.206Y-36.699
X258.019Y-34.069
X287.707Y-57.15
X297.868Y-57.15
X349.62Y-90.487
X359.78Y-90.487
X175.882Y-19.05
X186.042Y-19.05
X373.433Y-95.25
X383.592Y-95.25
X330.57Y-71.438
X340.73Y-71.438
X137.782Y-19.05
X147.942Y-19.05
X166.357Y-76.2
X176.517Y-76.2
X301.995Y-109.537
X312.155Y-109.537
X301.995Y-38.1
X312.155Y-38.1
X368.67Y-71.438
X378.83Y-71.438
X253.797Y-94.367
X263.61Y-91.737
X106.826Y-52.387
X116.986Y-52.387
X106.826Y-71.438
X116.986Y-71.438
X340.095Y-52.387
X350.255Y-52.387
X118.733Y-14.287
X128.892Y-14.287
X196.507Y-69.638
X206.321Y-72.268
X359.145Y-52.387
X369.305Y-52.387
X106.826Y-90.487
X116.986Y-90.487
X156.832Y-109.537
X166.992Y-109.537
X244.266Y-77.198
X254.08Y-74.569
X311.52Y-57.15
X321.68Y-57.15
X262.336Y-52.634
X272.15Y-50.005
X180.651Y-111.04
X190.465Y-113.67
X215.238Y-54.935
X225.052Y-57.565
X171.12Y-38.1
X181.28Y-38.1
X255.522Y-119.833
X265.336Y-117.203
X282.945Y-38.1
X293.105Y-38.1
X349.62Y-71.438
X359.78Y-71.438
X321.045Y-38.1
X331.205Y-38.1
X292.47Y-19.05
X302.63Y-19.05
X224.769Y-37.767
X234.583Y-40.397
X330.57Y-19.05
X340.73Y-19.05
X368.67Y-33.337
X378.83Y-33.337
X243.936Y-57.565
X253.749Y-54.935
X273.42Y-19.05
X283.58Y-19.05
X203.651Y-117.203
X213.465Y-119.833
X311.52Y-19.05
X321.68Y-19.05
X321.045Y-109.537
X331.205Y-109.537
X104.445Y-114.3
X114.605Y-114.3
X278.523Y-113.67
X288.337Y-111.04
X349.62Y-33.337
X359.78Y-33.337
X249.607Y0.0
X259.767Y0.0
X213.982Y0.0
X224.142Y0.0
X325.808Y0.0
X335.967Y0.0
X156.832Y0.0
X166.992Y0.0
X171.12Y-57.15
X181.28Y-57.15
X344.857Y0.0
X355.017Y0.0
X156.832Y-19.05
X166.992Y-19.05
X206.368Y-32.837
X216.182Y-35.466
X214.908Y-74.569
X224.722Y-77.198
X137.782Y0.0
X147.942Y0.0
X205.377Y-91.737
X215.191Y-94.367
X363.907Y0.0
X374.067Y0.0
X390.101Y-33.337
X400.261Y-33.337
X147.308Y-57.15
X157.468Y-57.15
X392.482Y-114.3
X402.642Y-114.3
X128.257Y-71.438
X138.417Y-71.438
X268.657Y0.0
X278.817Y0.0
X175.882Y0.0
X186.042Y0.0
X147.308Y-76.2
X157.468Y-76.2
X186.976Y-86.807
X196.79Y-89.436
X354.382Y-114.3
X364.542Y-114.3
X306.757Y0.0
X316.917Y0.0
X128.257Y-52.387
X138.417Y-52.387
X373.433Y-114.3
X383.592Y-114.3
X118.733Y-33.337
X128.892Y-33.337
X137.782Y-109.537
X147.942Y-109.537
X196.837Y-50.005
X206.651Y-52.634
X262.667Y-72.268
X272.481Y-69.638
X272.197Y-89.436
X282.011Y-86.807
X147.308Y-38.1
X157.468Y-38.1
X292.47Y-76.2
X302.63Y-76.2
X194.933Y0.0
X205.093Y0.0
T2
X340.412Y151.525
X164.135Y86.755
X376.512Y131.895
X226.587Y124.895
X226.587Y-12.105
X328.665Y86.755
X116.287Y-23.812
X388.037Y20.175
X102.0Y86.755
X102.0Y-104.775
X328.665Y-55.245
X326.425Y-154.105
X190.805Y-159.105
X171.7Y-12.105
X248.594Y20.175
X247.162Y-17.105
X220.393Y-263.825
X224.948Y74.602
X248.594Y-263.825
X130.81Y-134.475
X405.087Y37.225
X171.755Y24.938
X130.81Y7.525
X336.285Y-117.062
X130.81Y151.525
X171.7Y-154.105
X171.755Y-117.062
X405.087Y-25.812
X326.425Y-12.105
X340.412Y7.525
X224.948Y-67.398
X283.262Y151.525
X405.087Y-167.812
X405.087Y-206.135
X119.05Y-259.062
X328.665Y-197.245
X171.7Y131.895
X376.512Y124.895
X226.587Y131.895
X226.587Y-17.105
X346.445Y124.895
X226.587Y-154.105
X405.087Y77.865
X102.0Y37.225
X102.0Y-55.245
X405.087Y-104.775
X133.35Y-154.105
X346.445Y-159.105
X376.512Y-159.105
X164.135Y-55.245
X376.512Y-17.105
X247.162Y-12.105
X164.135Y-197.245
X116.287Y-165.812
X247.162Y-154.105
X102.0Y-197.245
X405.087Y116.188
X247.162Y-159.105
X220.393Y20.175
X190.805Y7.525
X248.594Y-121.825
X247.162Y124.895
X247.162Y131.895
X133.35Y131.895
X119.05Y-117.062
X405.087Y-64.135
X226.587Y-159.105
X346.445Y-17.105
X190.805Y-17.105
X326.425Y131.895
X340.412Y-134.475
X244.039Y-209.398
X171.755Y-259.062
X336.285Y-259.062
X190.805Y124.895
X190.805Y151.525
X283.262Y-134.475
X336.285Y24.938
X190.805Y-134.475
X244.039Y74.602
X119.05Y24.938
X133.35Y-12.105
X388.037Y-121.825
X116.287Y118.188
X376.512Y-154.105
X220.393Y-121.825
X244.039Y-67.398
X376.512Y-12.105
X283.262Y7.525
X224.948Y-209.398
X405.087Y-246.775
X388.037Y-263.825
X102.0Y-246.775
T3
X312.79Y-16.51
X319.14Y-13.97
X322.315Y-106.997
X328.665Y-104.457
X105.715Y-111.76
X112.065Y-109.22
X279.092Y-110.888
X284.568Y-106.791
X350.89Y-30.797
X357.24Y-28.258
X250.877Y2.54
X257.227Y5.08
X215.252Y2.54
X221.602Y5.08
X327.077Y2.54
X333.428Y5.08
X158.102Y2.54
X164.452Y5.08
X172.39Y-54.61
X178.74Y-52.07
X346.127Y2.54
X352.477Y5.08
X158.102Y-16.51
X164.452Y-13.97
X208.252Y-30.712
X215.043Y-29.902
X216.792Y-72.444
X223.583Y-71.634
X139.052Y2.54
X145.403Y5.08
X207.261Y-89.612
X214.052Y-88.802
X365.178Y2.54
X371.527Y5.08
X391.371Y-30.797
X397.721Y-28.258
X148.577Y-54.61
X154.927Y-52.07
X393.752Y-111.76
X400.102Y-109.22
X129.528Y-68.897
X135.877Y-66.358
X269.928Y2.54
X276.277Y5.08
X177.153Y2.54
X183.502Y5.08
X148.577Y-73.66
X154.927Y-71.12
X188.86Y-84.682
X195.651Y-83.872
X355.652Y-111.76
X362.002Y-109.22
X308.027Y2.54
X314.377Y5.08
X129.528Y-49.847
X135.877Y-47.307
X374.702Y-111.76
X381.053Y-109.22
X120.002Y-30.797
X126.352Y-28.258
X139.052Y-106.997
X145.403Y-104.457
X198.721Y-47.88
X205.512Y-47.07
X263.236Y-69.486
X268.712Y-65.389
X272.767Y-86.654
X278.243Y-82.557
X148.577Y-35.56
X154.927Y-33.02
X293.74Y-73.66
X300.09Y-71.12
X196.202Y2.54
X202.552Y5.08
X391.371Y-59.372
X397.721Y-56.832
X288.977Y2.54
X295.327Y5.08
X312.79Y-73.66
X319.14Y-71.12
X129.528Y-87.947
X135.877Y-85.407
X331.84Y-87.947
X338.19Y-85.407
X248.775Y-33.917
X254.251Y-29.82
X288.977Y-54.61
X295.327Y-52.07
X350.89Y-87.947
X357.24Y-85.407
X177.153Y-16.51
X183.502Y-13.97
X374.702Y-92.71
X381.053Y-90.17
X331.84Y-68.897
X338.19Y-66.358
X139.052Y-16.51
X145.403Y-13.97
X167.627Y-73.66
X173.977Y-71.12
X303.265Y-106.997
X309.615Y-104.457
X303.265Y-35.56
X309.615Y-33.02
X369.94Y-68.897
X376.29Y-66.358
X254.366Y-91.585
X259.842Y-87.488
X108.096Y-49.847
X114.446Y-47.307
X108.096Y-68.897
X114.446Y-66.358
X341.365Y-49.847
X347.715Y-47.307
X120.002Y-11.747
X126.352Y-9.207
X198.391Y-67.514
X205.182Y-66.704
X360.415Y-49.847
X366.765Y-47.307
X108.096Y-87.947
X114.446Y-85.407
X158.102Y-106.997
X164.452Y-104.457
X244.835Y-74.416
X250.311Y-70.319
X312.79Y-54.61
X319.14Y-52.07
X262.906Y-49.852
X268.382Y-45.755
X182.535Y-108.916
X189.326Y-108.106
X217.122Y-52.811
X223.913Y-52.001
X172.39Y-35.56
X178.74Y-33.02
X256.092Y-117.051
X261.568Y-112.954
X284.215Y-35.56
X290.565Y-33.02
X350.89Y-68.897
X357.24Y-66.358
X322.315Y-35.56
X328.665Y-33.02
X293.74Y-16.51
X300.09Y-13.97
X226.653Y-35.642
X233.444Y-34.832
X331.84Y-16.51
X338.19Y-13.97
X369.94Y-30.797
X376.29Y-28.258
X244.505Y-54.783
X249.981Y-50.686
X274.69Y-16.51
X281.04Y-13.97
X205.536Y-115.079
X212.327Y-114.269
T4
X388.196Y-49.974
X388.196Y-73.85
T5
X395.181Y-61.912
X292.787Y0.0
X316.6Y-76.2
X133.338Y-90.487
X335.65Y-90.487
X253.112Y-35.384
X292.787Y-57.15
X354.7Y-90.487
X180.963Y-19.05
X378.512Y-95.25
X335.65Y-71.438
X142.862Y-19.05
X171.438Y-76.2
X307.075Y-109.537
X307.075Y-38.1
X373.75Y-71.438
X258.703Y-93.052
X111.906Y-52.387
X111.906Y-71.438
X345.175Y-52.387
X123.812Y-14.287
X201.414Y-70.953
X364.225Y-52.387
X111.906Y-90.487
X161.912Y-109.537
X249.173Y-75.884
X316.6Y-57.15
X267.243Y-51.32
X185.558Y-112.355
X220.145Y-56.25
X176.2Y-38.1
X260.429Y-118.518
X288.025Y-38.1
X354.7Y-71.438
X326.125Y-38.1
X297.55Y-19.05
X229.676Y-39.082
X335.65Y-19.05
X373.75Y-33.337
X248.842Y-56.25
X278.5Y-19.05
X208.558Y-118.518
X316.6Y-19.05
X326.125Y-109.537
X109.525Y-114.3
X283.43Y-112.355
X354.7Y-33.337
X254.688Y0.0
X219.062Y0.0
X330.887Y0.0
X161.912Y0.0
X176.2Y-57.15
X349.938Y0.0
X161.912Y-19.05
X211.275Y-34.151
X219.815Y-75.884
X142.862Y0.0
X210.284Y-93.052
X368.988Y0.0
X395.181Y-33.337
X152.387Y-57.15
X397.562Y-114.3
X133.338Y-71.438
X273.738Y0.0
X180.963Y0.0
X152.387Y-76.2
X191.883Y-88.121
X359.462Y-114.3
X311.837Y0.0
X133.338Y-52.387
X378.512Y-114.3
X123.812Y-33.337
X142.862Y-109.537
X201.744Y-51.32
X267.574Y-70.953
X277.104Y-88.121
X152.387Y-38.1
X297.55Y-76.2
X200.012Y0.0
X403.436Y-49.974
X403.436Y-73.85
T0
M30
